<svg width="26" height="26" viewBox="0 0 26 26" fill="none" xmlns="http://www.w3.org/2000/svg">
<path d="M4.33334 8.66667L3.62624 9.37377L2.91913 8.66667L3.62624 7.95956L4.33334 8.66667ZM9.75001 21.5833C9.19773 21.5833 8.75001 21.1356 8.75001 20.5833C8.75001 20.031 9.19773 19.5833 9.75001 19.5833L9.75001 21.5833ZM9.0429 14.7904L3.62624 9.37377L5.04045 7.95956L10.4571 13.3762L9.0429 14.7904ZM3.62624 7.95956L9.0429 2.54289L10.4571 3.95711L5.04045 9.37377L3.62624 7.95956ZM4.33334 7.66667L15.7083 7.66667L15.7083 9.66667L4.33334 9.66667L4.33334 7.66667ZM15.7083 21.5833L9.75001 21.5833L9.75001 19.5833L15.7083 19.5833L15.7083 21.5833ZM22.6667 14.625C22.6667 18.468 19.5513 21.5833 15.7083 21.5833L15.7083 19.5833C18.4468 19.5833 20.6667 17.3634 20.6667 14.625L22.6667 14.625ZM15.7083 7.66667C19.5513 7.66666 22.6667 10.782 22.6667 14.625L20.6667 14.625C20.6667 11.8866 18.4468 9.66666 15.7083 9.66667L15.7083 7.66667Z" fill="#33363F"/>
</svg>
