<?xml version="1.0" encoding="UTF-8"?>
<svg id="_레이어_2" data-name="레이어 2" xmlns="http://www.w3.org/2000/svg" viewBox="0 0 49.02 49.01">
  <defs>
    <style>
      .cls-1 {
        fill: #4d956d;
        stroke-width: 0px;
      }
    </style>
  </defs>
  <g id="_레이어_1-2" data-name="레이어 1">
    <path class="cls-1" d="M24.5,0C10.87.02,0,10.93,0,24.56c0,13.18,10.66,24.47,24.74,24.45,13.34-.02,24.3-11.11,24.28-24.6C48.99,10.9,38.03-.02,24.5,0ZM36.96,21.24c-5.46,6.93-10.93,13.86-16.4,20.79-.13.17-.28.34-.65.38.5-2.07,1.01-4.14,1.51-6.21.52-2.13,1.04-4.27,1.59-6.4.2-.79.14-1.19-.88-1.17-3.21.06-6.41,0-9.62.03-.91,0-1.15-.16-.63-1.03.93-1.56,1.77-3.17,2.65-4.76.34-.49.57-1.05.9-1.55,2.41-4.13,4.84-8.25,7.23-12.39.42-.73.88-1.05,1.76-1.02,2.38.07,4.77.02,7.16.02,1.3,0,1.3,0,.62,1.18-1.93,3.36-3.87,6.71-5.81,10.07-.64,1.1-.6,1.17.73,1.18,3.13,0,6.27,0,9.4,0,.27,0,.65-.15.78.21.1.28-.2.46-.35.65Z"/>
  </g>
</svg>