<svg width="25" height="25" viewBox="0 0 25 25" fill="none" xmlns="http://www.w3.org/2000/svg">
<g id="image-add">
<path id="Icon" d="M6.45557 21.8065L15.8916 12.9256L20.3321 17.3661M6.45557 21.8065H17.5568C19.3961 21.8065 20.8871 20.3155 20.8871 18.4762V12.9256M6.45557 21.8065C4.61626 21.8065 3.12521 20.3155 3.12521 18.4762V7.37499C3.12521 5.53569 4.61626 4.04464 6.45557 4.04464H13.6713M19.777 9.40476L19.777 6.26487M19.777 6.26487L19.777 3.12498M19.777 6.26487L16.6371 6.26487M19.777 6.26487L22.9169 6.26487M9.78593 9.04017C9.78593 9.95982 9.0404 10.7053 8.12075 10.7053C7.2011 10.7053 6.45557 9.95982 6.45557 9.04017C6.45557 8.12052 7.2011 7.37499 8.12075 7.37499C9.0404 7.37499 9.78593 8.12052 9.78593 9.04017Z" stroke="#303030" stroke-linecap="round" stroke-linejoin="round"/>
</g>
</svg>
